<mxfile host="Electron" modified="2023-10-16T04:01:22.713Z" agent="Mozilla/5.0 (Macintosh; Intel Mac OS X 10_15_7) AppleWebKit/537.36 (KHTML, like Gecko) draw.io/21.6.5 Chrome/114.0.5735.243 Electron/25.3.1 Safari/537.36" etag="9MZAu0BVsgSwvgnfwesC" version="21.6.5" type="device">
  <diagram name="Page-1" id="kQM_iNbBMljfF8eU8yB_">
    <mxGraphModel dx="2154" dy="1549" grid="1" gridSize="10" guides="1" tooltips="1" connect="1" arrows="1" fold="1" page="0" pageScale="1" pageWidth="1169" pageHeight="827" math="0" shadow="0">
      <root>
        <mxCell id="0" />
        <mxCell id="1" parent="0" />
        <mxCell id="ASZDekcVzc4aizQ1iL-t-6" value="Action" style="edgeStyle=none;curved=1;rounded=0;orthogonalLoop=1;jettySize=auto;html=1;entryX=0;entryY=0.5;entryDx=0;entryDy=0;fontSize=12;startSize=8;endSize=8;strokeColor=#660000;" parent="1" source="ASZDekcVzc4aizQ1iL-t-1" target="ASZDekcVzc4aizQ1iL-t-2" edge="1">
          <mxGeometry relative="1" as="geometry" />
        </mxCell>
        <mxCell id="ASZDekcVzc4aizQ1iL-t-7" value="Action" style="edgeStyle=none;curved=1;rounded=0;orthogonalLoop=1;jettySize=auto;html=1;entryX=0;entryY=0.5;entryDx=0;entryDy=0;fontSize=12;startSize=8;endSize=8;strokeColor=#660000;" parent="1" source="ASZDekcVzc4aizQ1iL-t-1" target="ASZDekcVzc4aizQ1iL-t-3" edge="1">
          <mxGeometry relative="1" as="geometry" />
        </mxCell>
        <mxCell id="ASZDekcVzc4aizQ1iL-t-1" value="Node" style="ellipse;whiteSpace=wrap;html=1;aspect=fixed;fontSize=12;fillColor=#dae8fc;strokeColor=#6c8ebf;" parent="1" vertex="1">
          <mxGeometry x="-840" y="-640" width="40" height="40" as="geometry" />
        </mxCell>
        <mxCell id="ASZDekcVzc4aizQ1iL-t-8" value="Action" style="edgeStyle=none;curved=1;rounded=0;orthogonalLoop=1;jettySize=auto;html=1;fontSize=12;startSize=8;endSize=8;strokeColor=#660000;" parent="1" source="ASZDekcVzc4aizQ1iL-t-2" target="ASZDekcVzc4aizQ1iL-t-4" edge="1">
          <mxGeometry relative="1" as="geometry" />
        </mxCell>
        <mxCell id="ASZDekcVzc4aizQ1iL-t-2" value="Node" style="ellipse;whiteSpace=wrap;html=1;aspect=fixed;fontSize=12;fillColor=#f8cecc;strokeColor=#b85450;" parent="1" vertex="1">
          <mxGeometry x="-740" y="-680" width="40" height="40" as="geometry" />
        </mxCell>
        <mxCell id="ASZDekcVzc4aizQ1iL-t-9" value="Action" style="edgeStyle=none;curved=1;rounded=0;orthogonalLoop=1;jettySize=auto;html=1;entryX=0.025;entryY=0.675;entryDx=0;entryDy=0;fontSize=12;startSize=8;endSize=8;entryPerimeter=0;strokeColor=#660000;" parent="1" source="ASZDekcVzc4aizQ1iL-t-3" target="ASZDekcVzc4aizQ1iL-t-4" edge="1">
          <mxGeometry relative="1" as="geometry" />
        </mxCell>
        <mxCell id="ASZDekcVzc4aizQ1iL-t-3" value="Node" style="ellipse;whiteSpace=wrap;html=1;aspect=fixed;fontSize=12;fillColor=#ffe6cc;strokeColor=#d79b00;" parent="1" vertex="1">
          <mxGeometry x="-740" y="-600" width="40" height="40" as="geometry" />
        </mxCell>
        <mxCell id="ASZDekcVzc4aizQ1iL-t-10" value="Action" style="edgeStyle=none;curved=1;rounded=0;orthogonalLoop=1;jettySize=auto;html=1;entryX=0;entryY=0.5;entryDx=0;entryDy=0;fontSize=12;startSize=8;endSize=8;strokeColor=#660000;" parent="1" source="ASZDekcVzc4aizQ1iL-t-4" target="ASZDekcVzc4aizQ1iL-t-5" edge="1">
          <mxGeometry relative="1" as="geometry" />
        </mxCell>
        <mxCell id="ASZDekcVzc4aizQ1iL-t-4" value="Node" style="ellipse;whiteSpace=wrap;html=1;aspect=fixed;fontSize=12;fillColor=#e1d5e7;strokeColor=#9673a6;" parent="1" vertex="1">
          <mxGeometry x="-640" y="-640" width="40" height="40" as="geometry" />
        </mxCell>
        <mxCell id="ASZDekcVzc4aizQ1iL-t-5" value="Node" style="ellipse;whiteSpace=wrap;html=1;aspect=fixed;fontSize=12;fillColor=#dae8fc;strokeColor=#6c8ebf;" parent="1" vertex="1">
          <mxGeometry x="-540" y="-640" width="40" height="40" as="geometry" />
        </mxCell>
        <mxCell id="GGPxSnaoCcp2szFE_LYf-6" style="edgeStyle=none;curved=1;rounded=0;orthogonalLoop=1;jettySize=auto;html=1;fontSize=12;startSize=8;endSize=8;strokeWidth=2;strokeColor=#4D4D4D;" edge="1" parent="1" source="GGPxSnaoCcp2szFE_LYf-1" target="GGPxSnaoCcp2szFE_LYf-2">
          <mxGeometry relative="1" as="geometry" />
        </mxCell>
        <mxCell id="GGPxSnaoCcp2szFE_LYf-7" style="edgeStyle=none;curved=1;rounded=0;orthogonalLoop=1;jettySize=auto;html=1;entryX=1;entryY=0;entryDx=0;entryDy=0;fontSize=12;startSize=8;endSize=8;strokeWidth=2;strokeColor=#4D4D4D;" edge="1" parent="1" source="GGPxSnaoCcp2szFE_LYf-1" target="GGPxSnaoCcp2szFE_LYf-4">
          <mxGeometry relative="1" as="geometry" />
        </mxCell>
        <mxCell id="GGPxSnaoCcp2szFE_LYf-8" style="edgeStyle=none;curved=1;rounded=0;orthogonalLoop=1;jettySize=auto;html=1;entryX=0;entryY=0;entryDx=0;entryDy=0;fontSize=12;startSize=8;endSize=8;strokeWidth=2;strokeColor=#4D4D4D;" edge="1" parent="1" source="GGPxSnaoCcp2szFE_LYf-1" target="GGPxSnaoCcp2szFE_LYf-5">
          <mxGeometry relative="1" as="geometry" />
        </mxCell>
        <mxCell id="GGPxSnaoCcp2szFE_LYf-1" value="Node" style="ellipse;whiteSpace=wrap;html=1;aspect=fixed;fontSize=16;fillColor=#dae8fc;strokeColor=#6c8ebf;" vertex="1" parent="1">
          <mxGeometry x="-720" y="-400" width="50" height="50" as="geometry" />
        </mxCell>
        <mxCell id="GGPxSnaoCcp2szFE_LYf-2" value="options" style="shape=process;whiteSpace=wrap;html=1;backgroundOutline=1;fontSize=16;fillColor=#fff2cc;strokeColor=#d6b656;" vertex="1" parent="1">
          <mxGeometry x="-760" y="-470" width="130" height="30" as="geometry" />
        </mxCell>
        <mxCell id="GGPxSnaoCcp2szFE_LYf-4" value="onPrevAction" style="shape=process;whiteSpace=wrap;html=1;backgroundOutline=1;fontSize=16;fillColor=#fff2cc;strokeColor=#d6b656;" vertex="1" parent="1">
          <mxGeometry x="-885" y="-330" width="130" height="30" as="geometry" />
        </mxCell>
        <mxCell id="GGPxSnaoCcp2szFE_LYf-5" value="nextActions" style="shape=process;whiteSpace=wrap;html=1;backgroundOutline=1;fontSize=16;fillColor=#fff2cc;strokeColor=#d6b656;" vertex="1" parent="1">
          <mxGeometry x="-640" y="-330" width="130" height="30" as="geometry" />
        </mxCell>
      </root>
    </mxGraphModel>
  </diagram>
</mxfile>
